<?xml version="1.0" encoding="UTF-8"?>
<svg xmlns="http://www.w3.org/2000/svg" xmlns:xlink="http://www.w3.org/1999/xlink" width="40px" height="40px" viewBox="0 0 40 40" version="1.1">
<g id="surface1">
<path style=" stroke:none;fill-rule:nonzero;fill:rgb(25.490196%,74.509804%,26.666667%);fill-opacity:1;" d="M 12.960938 2.761719 C 12.519531 3.488281 12.039062 4.21875 11.898438 4.394531 L 11.640625 4.714844 L 9.488281 3.488281 C 8.300781 2.820312 7.300781 2.265625 7.273438 2.265625 C 7.238281 2.265625 7.546875 3.214844 7.953125 4.367188 C 8.359375 5.519531 9.179688 7.898438 9.765625 9.652344 L 10.839844 12.832031 L 10.191406 14.152344 C 9.472656 15.613281 9.425781 15.652344 9.207031 15.035156 C 8.261719 12.40625 7.601562 10.265625 7.601562 9.832031 C 7.601562 9.191406 7.339844 9.214844 7.101562 9.878906 C 6.851562 10.558594 6.992188 11.535156 7.8125 14.746094 L 8.546875 17.632812 L 8 19.101562 C 7.359375 20.800781 7.367188 20.808594 8.234375 20.273438 C 9.546875 19.464844 11.378906 18.800781 12.292969 18.800781 C 12.511719 18.800781 12.386719 19.09375 11.859375 19.753906 C 11.207031 20.578125 11.21875 20.621094 12.160156 21 C 14.859375 22.101562 16.652344 24.066406 19 28.507812 C 19.585938 29.621094 20.101562 30.527344 20.132812 30.527344 C 20.171875 30.527344 20.679688 29.585938 21.265625 28.441406 C 23.539062 23.988281 25.394531 21.925781 28.101562 20.859375 C 28.792969 20.585938 28.785156 20.613281 28.132812 19.734375 C 27.375 18.714844 27.378906 18.691406 28.707031 18.941406 C 29.601562 19.105469 30.40625 19.441406 31.640625 20.167969 C 32.773438 20.839844 32.765625 20.851562 32.132812 19.191406 C 31.488281 17.492188 31.472656 17.980469 32.261719 14.738281 C 33.058594 11.460938 33.179688 10.527344 32.886719 9.832031 C 32.613281 9.171875 32.398438 9.199219 32.398438 9.878906 C 32.398438 10.425781 30.839844 15.480469 30.679688 15.453125 C 30.308594 15.40625 29.320312 12.8125 29.464844 12.265625 C 29.71875 11.3125 31.414062 6.351562 32.1875 4.265625 C 32.578125 3.199219 32.859375 2.3125 32.808594 2.292969 C 32.746094 2.273438 31.753906 2.800781 30.585938 3.460938 C 29.421875 4.125 28.433594 4.667969 28.386719 4.667969 C 28.339844 4.667969 27.859375 3.945312 27.320312 3.066406 C 26.78125 2.1875 26.300781 1.464844 26.261719 1.464844 C 26.21875 1.464844 25.5 2.699219 24.660156 4.207031 L 23.132812 6.953125 L 16.875 6.953125 L 15.460938 4.339844 C 14.6875 2.90625 13.988281 1.667969 13.90625 1.585938 C 13.8125 1.492188 13.527344 1.847656 12.960938 2.761719 Z M 13.734375 6.585938 C 15.519531 7.488281 15.640625 7.59375 16.113281 8.800781 C 16.347656 9.40625 16.519531 9.921875 16.5 9.945312 C 16.347656 10.101562 13.808594 11.074219 13.679688 11.027344 C 13.011719 10.765625 11.464844 9.386719 11.464844 9.054688 C 11.464844 8.671875 11.691406 6.867188 11.8125 6.285156 C 11.898438 5.875 12.507812 5.964844 13.734375 6.585938 Z M 28.3125 6.433594 C 28.613281 8.105469 28.699219 9.375 28.519531 9.472656 C 28.421875 9.535156 27.886719 9.914062 27.339844 10.328125 C 26.167969 11.207031 26.351562 11.1875 24.886719 10.566406 C 23.453125 9.960938 23.488281 10.039062 24.054688 8.726562 C 24.5 7.6875 24.527344 7.660156 25.488281 7.101562 C 27.441406 5.964844 28.199219 5.785156 28.3125 6.433594 Z M 20.933594 11.832031 C 21.480469 13.753906 21.398438 13.707031 22.039062 12.535156 C 22.648438 11.421875 22.519531 11.441406 23.464844 12.3125 C 24.527344 13.292969 25.738281 14.066406 26.933594 14.511719 C 27.488281 14.726562 28.054688 14.941406 28.199219 15 C 28.59375 15.148438 27.734375 15.5 25.574219 16.074219 C 23.300781 16.679688 23.5 16.511719 22.851562 18.308594 C 21.914062 20.894531 21.921875 20.921875 23.171875 19.648438 C 24.480469 18.320312 25.539062 17.738281 26.859375 17.632812 C 27.464844 17.585938 27.734375 17.613281 27.734375 17.714844 C 27.734375 17.800781 27.632812 17.867188 27.511719 17.867188 C 25.992188 17.867188 23.253906 20.546875 22.433594 22.832031 C 22.21875 23.414062 22.167969 23.464844 21.765625 23.464844 C 21.21875 23.464844 21.226562 23.351562 21.808594 22.300781 L 22.273438 21.441406 L 21.828125 21.019531 C 21.578125 20.785156 21.074219 20.40625 20.691406 20.171875 L 20.007812 19.746094 L 19.078125 20.359375 C 17.773438 21.226562 17.726562 21.367188 18.320312 22.433594 C 18.90625 23.480469 18.90625 23.464844 18.347656 23.464844 C 17.90625 23.464844 17.878906 23.433594 17.207031 22.058594 C 16.28125 20.152344 15.191406 19.035156 13.546875 18.261719 C 12.179688 17.621094 12.140625 17.539062 13.234375 17.652344 C 14.535156 17.792969 15.613281 18.386719 16.832031 19.648438 C 17.398438 20.226562 17.867188 20.640625 17.867188 20.558594 C 17.867188 20.347656 16.652344 16.886719 16.511719 16.714844 C 16.445312 16.632812 16.160156 16.527344 15.878906 16.488281 C 15.328125 16.394531 11.601562 15.226562 11.601562 15.140625 C 11.601562 15.113281 12.066406 14.933594 12.640625 14.738281 C 13.980469 14.292969 15.105469 13.625 16.40625 12.5 C 17.667969 11.414062 17.480469 11.414062 18.09375 12.535156 C 18.691406 13.640625 18.699219 13.640625 18.914062 12.832031 C 19.679688 9.90625 19.59375 10.113281 20.046875 10.160156 C 20.460938 10.199219 20.472656 10.214844 20.933594 11.832031 Z M 20.933594 11.832031 "/>
<path style=" stroke:none;fill-rule:nonzero;fill:rgb(25.490196%,74.509804%,26.666667%);fill-opacity:1;" d="M 27.921875 22.378906 C 24.921875 23.953125 22.308594 28.171875 20.601562 34.199219 C 20.414062 34.859375 20.226562 35.488281 20.1875 35.601562 C 20.148438 35.707031 19.875 35.039062 19.585938 34.105469 C 17.738281 28.113281 15.464844 24.347656 12.761719 22.800781 L 12.09375 22.421875 L 11.613281 22.738281 C 10.941406 23.1875 9.652344 23.6875 8.898438 23.800781 C 8.140625 23.914062 8.085938 24.191406 8.527344 25.898438 C 9.121094 28.21875 11.605469 32.660156 12.3125 32.667969 C 12.445312 32.667969 12.441406 32.625 11.800781 30.398438 C 11.058594 27.792969 11.105469 27.765625 13.007812 29.667969 C 15.519531 32.191406 18.328125 35.839844 19.535156 38.167969 C 20.019531 39.09375 19.980469 39.09375 20.453125 38.234375 C 21.941406 35.546875 28.460938 27.878906 28.886719 28.3125 C 28.980469 28.398438 28.367188 30.972656 27.925781 32.386719 C 27.746094 32.945312 28.152344 32.648438 28.898438 31.660156 C 30.21875 29.925781 31.453125 27.140625 32.007812 24.667969 C 32.414062 22.839844 32.425781 22.878906 31.332031 22.691406 C 30.8125 22.605469 30.046875 22.394531 29.613281 22.21875 L 28.832031 21.898438 Z M 27.921875 22.378906 "/>
</g>
</svg>
