<?xml version="1.0" encoding="UTF-8"?>
<svg xmlns="http://www.w3.org/2000/svg" xmlns:xlink="http://www.w3.org/1999/xlink" width="40px" height="40px" viewBox="0 0 40 40" version="1.1">
<g id="surface1">
<path style=" stroke:none;fill-rule:nonzero;fill:rgb(20.784314%,64.705882%,79.215686%);fill-opacity:1;" d="M 13.476562 1.902344 C 13.003906 2.675781 12.746094 3.09375 12.605469 3.3125 C 12.519531 3.429688 12.285156 3.800781 12.070312 4.121094 C 11.820312 4.503906 11.65625 4.710938 11.609375 4.710938 C 11.570312 4.710938 11.4375 4.652344 11.3125 4.585938 C 11.191406 4.515625 10.976562 4.398438 10.84375 4.324219 C 10.710938 4.25 10.421875 4.089844 10.199219 3.96875 C 9.464844 3.558594 9.347656 3.488281 7.839844 2.617188 C 7.59375 2.472656 7.351562 2.355469 7.296875 2.355469 C 7.160156 2.355469 7.15625 2.328125 7.667969 3.753906 C 7.933594 4.503906 8.023438 4.75 8.15625 5.132812 C 8.253906 5.414062 8.421875 5.890625 8.808594 6.976562 C 8.882812 7.1875 8.96875 7.445312 9.003906 7.554688 C 9.035156 7.667969 9.097656 7.84375 9.136719 7.957031 C 9.300781 8.410156 9.878906 10.078125 9.933594 10.265625 C 9.964844 10.378906 10.070312 10.707031 10.167969 11 C 10.769531 12.816406 10.816406 13.011719 10.691406 13.152344 C 10.65625 13.191406 10.378906 13.71875 10.066406 14.332031 C 9.753906 14.941406 9.472656 15.476562 9.441406 15.511719 C 9.355469 15.601562 9.324219 15.550781 9.160156 15.066406 C 8.945312 14.449219 8.75 13.902344 8.707031 13.800781 C 8.636719 13.636719 7.792969 11.121094 7.625 10.582031 C 7.582031 10.425781 7.554688 10.183594 7.554688 9.867188 C 7.554688 9.472656 7.542969 9.382812 7.484375 9.359375 C 7.386719 9.324219 7.390625 9.320312 7.289062 9.429688 C 6.785156 9.96875 6.828125 11.359375 7.398438 13.398438 C 7.441406 13.546875 7.5625 14.019531 7.675781 14.445312 C 7.785156 14.871094 7.90625 15.332031 7.941406 15.464844 C 7.976562 15.601562 8.035156 15.820312 8.066406 15.957031 C 8.097656 16.089844 8.140625 16.28125 8.167969 16.378906 C 8.308594 16.875 8.488281 17.652344 8.488281 17.738281 C 8.488281 17.785156 8.457031 17.882812 8.425781 17.945312 C 8.390625 18.011719 8.332031 18.136719 8.296875 18.222656 C 8.261719 18.308594 8.207031 18.4375 8.179688 18.511719 C 8.148438 18.582031 8.105469 18.691406 8.089844 18.753906 C 8.066406 18.816406 8.007812 18.976562 7.957031 19.109375 C 7.78125 19.5625 7.464844 20.519531 7.464844 20.589844 C 7.464844 20.722656 7.613281 20.675781 8.109375 20.375 C 9.617188 19.472656 10.636719 19.058594 11.667969 18.933594 C 12.15625 18.875 12.40625 18.882812 12.429688 18.964844 C 12.441406 18.992188 12.34375 19.140625 12.214844 19.296875 C 11.90625 19.664062 11.613281 20.042969 11.398438 20.367188 C 11.253906 20.59375 11.238281 20.636719 11.296875 20.691406 C 11.355469 20.75 11.667969 20.882812 11.960938 20.976562 C 12.390625 21.109375 13.515625 21.722656 14.109375 22.152344 C 14.707031 22.578125 15.550781 23.324219 15.761719 23.609375 C 15.816406 23.683594 15.960938 23.84375 16.074219 23.972656 C 16.59375 24.523438 17.421875 25.746094 18.066406 26.910156 C 18.664062 27.988281 19.007812 28.636719 19.5625 29.734375 C 19.808594 30.207031 20.011719 30.605469 20.023438 30.613281 C 20.085938 30.675781 20.257812 30.386719 20.867188 29.179688 C 22.398438 26.152344 22.988281 25.171875 24.042969 23.894531 C 25 22.730469 25.957031 21.945312 27.199219 21.300781 C 27.542969 21.125 27.636719 21.085938 28.257812 20.839844 C 28.523438 20.734375 28.621094 20.671875 28.621094 20.613281 C 28.621094 20.527344 28.355469 20.128906 28.003906 19.671875 C 27.390625 18.882812 27.390625 18.890625 27.8125 18.890625 C 28.183594 18.894531 28.863281 18.992188 29.246094 19.101562 C 29.796875 19.261719 31.070312 19.859375 31.535156 20.179688 C 31.847656 20.394531 32.40625 20.710938 32.472656 20.710938 C 32.507812 20.710938 32.546875 20.679688 32.558594 20.644531 C 32.582031 20.589844 32.300781 19.6875 32.179688 19.398438 C 32.15625 19.351562 32.0625 19.121094 31.976562 18.890625 C 31.890625 18.65625 31.753906 18.324219 31.683594 18.148438 C 31.539062 17.792969 31.523438 17.605469 31.617188 17.25 C 31.652344 17.109375 31.730469 16.808594 31.78125 16.578125 C 31.832031 16.347656 31.894531 16.105469 31.910156 16.042969 C 31.933594 15.980469 32.011719 15.664062 32.089844 15.332031 C 32.167969 15.003906 32.257812 14.640625 32.292969 14.523438 C 32.328125 14.410156 32.355469 14.289062 32.355469 14.253906 C 32.355469 14.21875 32.386719 14.089844 32.421875 13.972656 C 32.636719 13.253906 32.863281 12.15625 32.964844 11.367188 C 33.035156 10.785156 33.035156 10.722656 32.96875 10.320312 C 32.875 9.777344 32.683594 9.378906 32.519531 9.378906 C 32.40625 9.378906 32.382812 9.472656 32.375 9.976562 C 32.367188 10.460938 32.363281 10.480469 32.03125 11.488281 C 31.84375 12.050781 31.601562 12.800781 31.484375 13.15625 C 31.375 13.511719 31.253906 13.871094 31.21875 13.957031 C 31.1875 14.039062 31.089844 14.351562 30.996094 14.644531 C 30.734375 15.519531 30.714844 15.558594 30.617188 15.507812 C 30.570312 15.484375 30.535156 15.441406 30.535156 15.417969 C 30.535156 15.367188 29.800781 13.898438 29.585938 13.511719 C 29.230469 12.878906 29.246094 12.957031 29.40625 12.414062 C 29.464844 12.195312 29.546875 11.933594 29.578125 11.820312 C 29.648438 11.570312 29.8125 11.054688 29.894531 10.820312 C 29.929688 10.71875 29.957031 10.613281 29.957031 10.582031 C 29.957031 10.550781 29.980469 10.460938 30.019531 10.386719 C 30.054688 10.308594 30.15625 10.023438 30.238281 9.753906 C 30.535156 8.84375 30.570312 8.734375 30.816406 8.023438 C 30.949219 7.632812 31.125 7.128906 31.199219 6.910156 C 31.277344 6.6875 31.355469 6.472656 31.375 6.421875 C 31.394531 6.375 31.476562 6.152344 31.554688 5.933594 C 31.632812 5.710938 31.722656 5.464844 31.761719 5.386719 C 31.796875 5.308594 31.820312 5.222656 31.820312 5.195312 C 31.820312 5.167969 31.847656 5.085938 31.882812 5.007812 C 31.914062 4.929688 31.976562 4.765625 32.023438 4.644531 C 32.066406 4.519531 32.125 4.359375 32.15625 4.289062 C 32.1875 4.214844 32.234375 4.09375 32.257812 4.023438 C 32.328125 3.808594 32.519531 3.289062 32.621094 3.023438 C 32.75 2.6875 32.839844 2.363281 32.808594 2.335938 C 32.714844 2.238281 32.585938 2.308594 30.933594 3.289062 C 30.871094 3.328125 30.441406 3.570312 30.003906 3.8125 C 29.894531 3.875 29.707031 3.980469 29.589844 4.050781 C 29.472656 4.121094 29.363281 4.179688 29.351562 4.179688 C 29.34375 4.179688 29.257812 4.222656 29.164062 4.28125 C 28.859375 4.476562 28.40625 4.710938 28.34375 4.710938 C 28.289062 4.710938 28.066406 4.386719 27.527344 3.519531 C 27.4375 3.363281 27.324219 3.191406 27.289062 3.132812 C 27.253906 3.074219 27.105469 2.84375 26.964844 2.613281 C 26.375 1.667969 26.28125 1.535156 26.199219 1.535156 C 26.125 1.535156 26.007812 1.734375 24.976562 3.621094 C 24.898438 3.769531 24.816406 3.90625 24.800781 3.933594 C 24.78125 3.957031 24.699219 4.105469 24.613281 4.265625 C 24.523438 4.425781 24.40625 4.644531 24.347656 4.753906 C 24.285156 4.867188 24.164062 5.085938 24.078125 5.246094 C 23.992188 5.40625 23.882812 5.605469 23.835938 5.6875 C 23.785156 5.773438 23.664062 6.003906 23.554688 6.199219 C 23.449219 6.394531 23.316406 6.632812 23.257812 6.71875 C 23.203125 6.8125 23.15625 6.902344 23.15625 6.925781 C 23.15625 6.945312 23.105469 7.007812 23.050781 7.0625 L 22.941406 7.164062 L 22.894531 7.070312 C 22.839844 6.976562 22.839844 6.976562 20.027344 6.976562 L 17.214844 6.976562 L 17.089844 7.074219 L 16.96875 7.167969 L 16.894531 7.074219 C 16.851562 7.023438 16.773438 6.882812 16.710938 6.769531 C 16.652344 6.648438 16.558594 6.484375 16.511719 6.398438 C 16.390625 6.207031 16.140625 5.746094 15.875 5.246094 C 15.449219 4.425781 15.222656 4.003906 14.976562 3.554688 C 14.835938 3.296875 14.652344 2.960938 14.570312 2.800781 C 13.996094 1.734375 13.859375 1.511719 13.761719 1.511719 C 13.734375 1.511719 13.605469 1.683594 13.476562 1.902344 Z M 12.644531 6.1875 C 13.128906 6.332031 13.71875 6.601562 14.25 6.910156 C 14.4375 7.023438 14.589844 7.109375 14.601562 7.109375 C 14.640625 7.109375 15.414062 7.582031 15.503906 7.664062 C 15.617188 7.765625 15.738281 7.976562 15.835938 8.253906 C 15.871094 8.347656 15.980469 8.632812 16.089844 8.890625 C 16.234375 9.257812 16.488281 9.941406 16.488281 9.988281 C 16.488281 10 16.109375 10.167969 15.777344 10.300781 C 15.21875 10.527344 14.074219 11.011719 13.933594 11.085938 C 13.761719 11.179688 13.683594 11.171875 13.554688 11.070312 C 13.492188 11.023438 13.265625 10.839844 13.042969 10.667969 C 12.828125 10.492188 12.359375 10.148438 12.007812 9.898438 L 11.375 9.445312 L 11.398438 9.089844 C 11.414062 8.894531 11.453125 8.550781 11.488281 8.332031 C 11.519531 8.109375 11.582031 7.671875 11.617188 7.355469 C 11.722656 6.523438 11.78125 6.167969 11.832031 6.074219 C 11.882812 5.972656 12 5.992188 12.644531 6.1875 Z M 28.277344 6.511719 C 28.316406 6.777344 28.382812 7.25 28.421875 7.554688 C 28.460938 7.863281 28.523438 8.320312 28.558594 8.578125 C 28.59375 8.835938 28.621094 9.128906 28.621094 9.230469 C 28.621094 9.40625 28.605469 9.429688 28.4375 9.542969 C 28.15625 9.722656 27.347656 10.316406 26.496094 10.964844 C 26.363281 11.070312 26.207031 11.15625 26.160156 11.15625 C 26.078125 11.15625 25.976562 11.117188 25.488281 10.890625 C 25.390625 10.84375 24.933594 10.644531 24.464844 10.445312 C 24.003906 10.246094 23.59375 10.058594 23.5625 10.027344 C 23.515625 9.976562 23.535156 9.898438 23.667969 9.574219 C 23.753906 9.355469 23.84375 9.136719 23.867188 9.089844 C 23.890625 9.039062 23.960938 8.871094 24.027344 8.710938 C 24.089844 8.550781 24.222656 8.257812 24.320312 8.054688 L 24.496094 7.6875 L 25.011719 7.382812 C 25.300781 7.214844 25.605469 7.035156 25.6875 6.988281 C 26.101562 6.738281 27.042969 6.300781 27.421875 6.183594 C 28.234375 5.925781 28.183594 5.90625 28.277344 6.511719 Z M 20.425781 10.3125 C 20.457031 10.375 20.511719 10.535156 20.550781 10.667969 C 20.589844 10.800781 20.679688 11.121094 20.753906 11.378906 C 20.832031 11.636719 20.976562 12.152344 21.089844 12.523438 C 21.199219 12.902344 21.289062 13.246094 21.289062 13.285156 C 21.289062 13.324219 21.316406 13.398438 21.351562 13.449219 C 21.410156 13.523438 21.421875 13.523438 21.480469 13.464844 C 21.515625 13.429688 21.632812 13.238281 21.734375 13.042969 C 21.839844 12.847656 21.988281 12.578125 22.066406 12.445312 C 22.148438 12.3125 22.21875 12.179688 22.226562 12.15625 C 22.289062 11.988281 22.519531 11.644531 22.574219 11.644531 C 22.636719 11.644531 22.769531 11.753906 23.378906 12.324219 C 24.027344 12.933594 24.792969 13.511719 25.390625 13.851562 C 25.6875 14.023438 26.832031 14.578125 26.882812 14.578125 C 26.910156 14.578125 26.996094 14.609375 27.074219 14.640625 C 27.15625 14.675781 27.40625 14.769531 27.621094 14.84375 C 28.328125 15.089844 28.398438 15.117188 28.398438 15.160156 C 28.398438 15.203125 28.203125 15.292969 27.6875 15.472656 C 26.90625 15.742188 25.269531 16.238281 24.933594 16.3125 C 24.800781 16.34375 24.421875 16.4375 23.652344 16.632812 C 23.429688 16.6875 23.382812 16.75 23.230469 17.179688 C 23.125 17.472656 22.875 18.15625 22.730469 18.554688 C 22.644531 18.792969 22.25 19.960938 22.160156 20.253906 C 22.070312 20.535156 22.066406 20.710938 22.148438 20.710938 C 22.183594 20.710938 22.347656 20.546875 22.515625 20.347656 C 22.996094 19.773438 23.859375 18.9375 24.261719 18.648438 C 24.667969 18.359375 25.375 17.980469 25.6875 17.882812 C 26.238281 17.710938 26.929688 17.621094 27.351562 17.667969 C 27.59375 17.691406 27.644531 17.710938 27.644531 17.78125 C 27.644531 17.835938 27.601562 17.875 27.523438 17.894531 C 27.070312 17.992188 26.332031 18.308594 25.679688 18.675781 C 25.429688 18.816406 24.835938 19.292969 24.492188 19.617188 C 23.527344 20.550781 22.710938 21.851562 22.292969 23.125 C 22.234375 23.289062 22.171875 23.445312 22.152344 23.464844 C 22.089844 23.527344 21.296875 23.464844 21.269531 23.398438 C 21.261719 23.367188 21.285156 23.277344 21.328125 23.195312 C 21.851562 22.207031 22.179688 21.535156 22.15625 21.464844 C 22.105469 21.3125 21.480469 20.769531 20.949219 20.421875 C 20.117188 19.875 20.03125 19.820312 20.003906 19.820312 C 19.972656 19.820312 19.441406 20.140625 19.019531 20.414062 C 18.328125 20.851562 17.820312 21.320312 17.820312 21.503906 C 17.820312 21.613281 18.578125 23.101562 18.714844 23.269531 C 18.828125 23.40625 18.730469 23.453125 18.289062 23.484375 C 18.019531 23.507812 17.839844 23.503906 17.804688 23.472656 C 17.777344 23.449219 17.707031 23.3125 17.648438 23.167969 C 17.289062 22.253906 17.078125 21.8125 16.722656 21.199219 C 16.507812 20.828125 15.941406 20.109375 15.539062 19.703125 C 14.78125 18.941406 13.960938 18.417969 12.933594 18.039062 C 12.457031 17.867188 12.425781 17.847656 12.410156 17.761719 C 12.394531 17.699219 12.445312 17.6875 12.792969 17.6875 C 14.457031 17.6875 15.796875 18.441406 17.292969 20.226562 C 17.699219 20.703125 17.820312 20.800781 17.820312 20.621094 C 17.820312 20.503906 17.074219 18.257812 16.753906 17.421875 C 16.703125 17.289062 16.632812 17.089844 16.589844 16.976562 C 16.496094 16.703125 16.421875 16.632812 16.183594 16.601562 C 15.644531 16.523438 14.226562 16.121094 12.511719 15.546875 C 11.878906 15.332031 11.601562 15.222656 11.601562 15.179688 C 11.601562 15.148438 11.878906 15.007812 12.023438 14.972656 C 12.222656 14.925781 13.195312 14.582031 13.421875 14.480469 C 14.773438 13.871094 15.476562 13.386719 16.929688 12.050781 C 17.15625 11.839844 17.375 11.648438 17.414062 11.625 C 17.492188 11.582031 17.574219 11.675781 17.75 12.019531 C 17.8125 12.140625 17.96875 12.421875 18.089844 12.644531 C 18.207031 12.863281 18.363281 13.152344 18.429688 13.277344 C 18.574219 13.550781 18.6875 13.585938 18.734375 13.363281 C 18.746094 13.289062 18.785156 13.132812 18.820312 13.023438 C 18.851562 12.910156 18.910156 12.691406 18.949219 12.535156 C 19.207031 11.546875 19.289062 11.25 19.355469 11.042969 C 19.386719 10.945312 19.449219 10.738281 19.488281 10.578125 C 19.535156 10.417969 19.589844 10.261719 19.613281 10.230469 C 19.644531 10.191406 19.765625 10.179688 20.019531 10.1875 C 20.351562 10.199219 20.378906 10.207031 20.425781 10.3125 Z M 20.425781 10.3125 "/>
<path style=" stroke:none;fill-rule:nonzero;fill:rgb(20.784314%,64.705882%,79.215686%);fill-opacity:1;" d="M 28.285156 22.195312 C 27.421875 22.613281 26.511719 23.261719 25.691406 24.042969 C 25.070312 24.636719 23.890625 26.246094 23.285156 27.3125 C 23.121094 27.605469 22.476562 28.894531 22.351562 29.179688 C 22.203125 29.507812 21.835938 30.40625 21.746094 30.644531 C 21.710938 30.742188 21.65625 30.871094 21.636719 30.933594 C 21.609375 30.996094 21.574219 31.09375 21.550781 31.15625 C 21.535156 31.21875 21.394531 31.617188 21.246094 32.042969 C 20.941406 32.914062 20.453125 34.523438 20.277344 35.238281 C 20.1875 35.582031 20.132812 35.714844 20.078125 35.722656 C 20.03125 35.734375 20 35.699219 19.976562 35.589844 C 19.960938 35.511719 19.875 35.214844 19.792969 34.933594 C 19.707031 34.652344 19.617188 34.351562 19.589844 34.265625 C 19.570312 34.183594 19.4375 33.78125 19.300781 33.378906 C 19.164062 32.972656 19.039062 32.582031 19.019531 32.511719 C 19 32.4375 18.941406 32.265625 18.890625 32.132812 C 18.734375 31.730469 18.667969 31.546875 18.554688 31.222656 C 18.460938 30.9375 18.414062 30.8125 18.308594 30.554688 C 18.289062 30.507812 18.167969 30.21875 18.042969 29.910156 C 17.222656 27.90625 16.269531 26.285156 15.070312 24.84375 C 14.34375 23.96875 13.246094 23.085938 12.324219 22.617188 C 12.167969 22.542969 12.023438 22.492188 11.992188 22.515625 C 11.960938 22.535156 11.804688 22.632812 11.644531 22.734375 C 10.675781 23.363281 9.324219 23.867188 8.585938 23.867188 C 8.457031 23.867188 8.308594 23.890625 8.257812 23.914062 C 8.167969 23.964844 8.167969 23.992188 8.195312 24.394531 C 8.292969 25.832031 9.042969 28.058594 9.949219 29.589844 C 10.027344 29.71875 10.089844 29.835938 10.089844 29.84375 C 10.089844 29.875 10.507812 30.550781 10.6875 30.816406 C 11.140625 31.472656 11.640625 32.105469 12.019531 32.519531 C 12.199219 32.714844 12.335938 32.765625 12.386719 32.640625 C 12.414062 32.5625 12.410156 32.539062 12.15625 31.84375 C 12.070312 31.601562 11.976562 31.328125 11.957031 31.246094 C 11.933594 31.160156 11.878906 30.976562 11.839844 30.84375 C 11.800781 30.710938 11.742188 30.496094 11.710938 30.378906 C 11.679688 30.253906 11.605469 29.957031 11.539062 29.710938 C 11.351562 28.980469 11.328125 28.878906 11.300781 28.589844 C 11.261719 28.15625 11.289062 28.136719 11.609375 28.386719 C 11.96875 28.664062 13.511719 30.191406 14.089844 30.84375 C 14.636719 31.457031 15.25 32.1875 15.890625 32.976562 C 15.964844 33.070312 16.1875 33.347656 16.386719 33.59375 C 17.699219 35.21875 18.820312 36.914062 19.550781 38.363281 C 19.734375 38.730469 19.90625 39.023438 19.933594 39.023438 C 20.007812 39.023438 20.050781 38.96875 20.289062 38.511719 C 20.882812 37.382812 21.996094 35.742188 23 34.507812 C 23.125 34.359375 23.300781 34.136719 23.398438 34.019531 C 23.558594 33.816406 24.050781 33.246094 24.640625 32.554688 C 24.765625 32.410156 24.996094 32.148438 25.15625 31.976562 C 25.316406 31.804688 25.519531 31.574219 25.617188 31.464844 C 26.621094 30.300781 28.621094 28.320312 28.832031 28.269531 C 28.894531 28.257812 28.898438 28.296875 28.875 28.546875 C 28.851562 28.804688 28.707031 29.488281 28.554688 30.066406 C 28.523438 30.1875 28.460938 30.425781 28.417969 30.601562 C 28.378906 30.769531 28.316406 31 28.285156 31.109375 C 28.25 31.222656 28.191406 31.421875 28.152344 31.554688 C 28.039062 31.9375 27.902344 32.328125 27.859375 32.386719 C 27.78125 32.480469 27.835938 32.6875 27.9375 32.703125 C 28.003906 32.710938 28.105469 32.625 28.316406 32.394531 C 28.570312 32.109375 28.921875 31.65625 29.109375 31.378906 C 29.148438 31.324219 29.230469 31.203125 29.292969 31.117188 C 29.496094 30.828125 30.070312 29.851562 30.28125 29.445312 C 30.84375 28.34375 31.296875 27.191406 31.667969 25.933594 C 31.78125 25.550781 31.820312 25.390625 31.976562 24.6875 C 32.183594 23.773438 32.292969 22.949219 32.222656 22.867188 C 32.191406 22.828125 32.019531 22.800781 31.742188 22.785156 C 31.507812 22.777344 31.183594 22.742188 31.023438 22.714844 C 30.679688 22.652344 29.355469 22.214844 29.058594 22.0625 C 28.941406 22.003906 28.832031 21.957031 28.8125 21.957031 C 28.796875 21.957031 28.554688 22.0625 28.285156 22.195312 Z M 28.285156 22.195312 "/>
</g>
</svg>
